<svg style="fill: white;" width="42" xmlns="http://www.w3.org/2000/svg" viewBox="0 0 42 42">
    <path class="c-logo"
          d="M20.7,34.7c-6.58,0-12.41-5.57-13.2-12.38-4.11,4.47-2.87,9.92-1.88,12.54a20.71,20.71,0,0,0,15.24,6.76A20.31,20.31,0,0,0,39.35,29.67h-8.6C29,31.56,26.05,34.7,20.7,34.7Z">
    </path>
    <path class="c-logo"
          d="M7.43,19.88c0.46-7.55,6.75-13,13-13,4.43,0,7.84,2,10.7,5.3h8.43A20.54,20.54,0,0,0,20.7,0,20.83,20.83,0,0,0,0,20.65a20.59,20.59,0,0,0,.94,6.17A10.59,10.59,0,0,1,7.43,19.88Z">
    </path>
</svg>